<svg xmlns="http://www.w3.org/2000/svg" fill="none" viewBox="0 0 24 24" stroke-width="1.5" stroke="currentColor" aria-hidden="true"><path stroke-linecap="round" stroke-linejoin="round" d="M14.857 17.082a23.848 23.848 0 0 0 5.454-1.31A8.967 8.967 0 0 1 18 9.75v-.113V9A6 6 0 0 0 6 9v.75a8.967 8.967 0 0 1-5.455 6.048A23.848 23.848 0 0 0 9.148 17.082M14.857 17.082A23.848 23.848 0 0 1 9.148 17.082M14.857 17.082v.001M9.148 17.082v.001M14.857 17.082a23.848 23.848 0 0 0 5.454-1.31A8.967 8.967 0 0 0 21 12.75V12M9.148 17.082a23.848 23.848 0 0 1-5.454-1.31A8.967 8.967 0 0 1 3 12.75V12"/></svg>
